<?xml version="1.0" encoding="UTF-8" standalone="no"?>
<svg
   id="visual"
   viewBox="0 0 960 396.23059"
   width="960"
   height="396.23059"
   version="1.1"
   sodipodi:docname="stacked-peaks-flat.svg"
   inkscape:version="1.2.1 (9c6d41e410, 2022-07-14)"
   xmlns:inkscape="http://www.inkscape.org/namespaces/inkscape"
   xmlns:sodipodi="http://sodipodi.sourceforge.net/DTD/sodipodi-0.dtd"
   xmlns="http://www.w3.org/2000/svg"
   xmlns:svg="http://www.w3.org/2000/svg">
  <defs
     id="defs10750" />
  <sodipodi:namedview
     id="namedview10748"
     pagecolor="#ffffff"
     bordercolor="#000000"
     borderopacity="0.25"
     inkscape:showpageshadow="2"
     inkscape:pageopacity="0.0"
     inkscape:pagecheckerboard="0"
     inkscape:deskcolor="#d1d1d1"
     showgrid="false"
     inkscape:zoom="1.2502642"
     inkscape:cx="479.89857"
     inkscape:cy="188.7601"
     inkscape:window-width="1920"
     inkscape:window-height="974"
     inkscape:window-x="-11"
     inkscape:window-y="-11"
     inkscape:window-maximized="1"
     inkscape:current-layer="visual" />
  <path
     d="m 0,55.237889 87,28.681211 88,-17.527404 87,3.186806 87,16.996268 h 87 l 88,2.65567 87,3.1868 87,-20.183073 87,-16.996278 88,11.153807 87,11.684944 V 0 H 873 785 698 611 524 436 349 262 175 87 0 Z"
     fill="#003223"
     id="path10737"
     style="stroke-width:0.72879" />
  <path
     d="m 0,103.41724 87,10 88,17 87,5 87,-11 87,33 88,-6 87,-11 87,-37 87,-37.999996 88,42.999996 h 87 V 63.417244 l -87,-22 -88,-21 -87,32 -87,37.999996 -87,-6 -88,-5 h -87 l -87,-31.999996 -87,-6 L 87,74.41724 0,20.417244 Z"
     fill="#013b2d"
     id="path10739" />
  <path
     d="m 0,146.41724 87,21 88,38 87,22 87,-6 87,33 88,-38 87,-16 87,-22 87,-5 88,32 87,-32 v -67 h -87 l -88,-42.999996 -87,37.999996 -87,37 -87,11 -88,6 -87,-33 -87,11 -87,-5 -88,-17 -87,-10 z"
     fill="#014537"
     id="path10741" />
  <path
     d="m 0,275.41724 87,38 88,-48 87,21 87,60 87,21 88,-86 87,27 87,-38 87,27 88,-11 87,33 v -148 l -87,32 -88,-32 -87,5 -87,22 -87,16 -88,38 -87,-33 -87,6 -87,-22 -88,-38 -87,-21 z"
     fill="#024f42"
     id="path10743" />
  <path
     d="m 0,396.2306 h 87 88 87 87 87 88 87 87 87 88 87 v -96.22192 l -87,-22.36143 -88,7.45381 -87,-18.29573 -87,25.74954 -87,-18.29573 -88,58.27526 -87,-14.23001 -87,-40.65714 -87,-14.23001 -88,32.52572 -87,-25.74952 z"
     fill="#02594e"
     id="path10745"
     style="stroke-width:0.823176" />
</svg>
