<?xml version="1.0" encoding="UTF-8" standalone="no"?>
<svg
   id="visual"
   viewBox="0 0 960 448.2196"
   width="960"
   height="448.2196"
   version="1.1"
   sodipodi:docname="stacked-peaks-flat.svg"
   inkscape:version="1.2.1 (9c6d41e410, 2022-07-14)"
   xmlns:inkscape="http://www.inkscape.org/namespaces/inkscape"
   xmlns:sodipodi="http://sodipodi.sourceforge.net/DTD/sodipodi-0.dtd"
   xmlns="http://www.w3.org/2000/svg"
   xmlns:svg="http://www.w3.org/2000/svg">
  <defs
     id="defs10750" />
  <sodipodi:namedview
     id="namedview10748"
     pagecolor="#ffffff"
     bordercolor="#000000"
     borderopacity="0.25"
     inkscape:showpageshadow="2"
     inkscape:pageopacity="0.0"
     inkscape:pagecheckerboard="0"
     inkscape:deskcolor="#d1d1d1"
     showgrid="false"
     inkscape:zoom="1.2502642"
     inkscape:cx="479.89857"
     inkscape:cy="214.35469"
     inkscape:window-width="1920"
     inkscape:window-height="974"
     inkscape:window-x="-11"
     inkscape:window-y="-11"
     inkscape:window-maximized="1"
     inkscape:current-layer="visual" />
  <path
     d="m 0,70.535804 87,36.624366 88,-22.381556 87,4.06938 87,21.703316 h 87 l 88,3.39115 87,4.06937 87,-25.772696 87,-21.70333 88,14.24281 87,14.92104 V 0 H 873 785 698 611 524 436 349 262 175 87 0 Z"
     fill="#003223"
     id="path10737"
     style="stroke-width:0.823547" />
  <path
     d="m 0,129.01183 87,10 88,17 87,5 87,-11 87,33 88,-6 87,-11 87,-37 87,-37.999996 88,42.999996 h 87 V 89.011834 l -87,-22 -88,-21 -87,32 -87,37.999996 -87,-6 -88,-5 h -87 l -87,-31.999996 -87,-6 L 87,100.01183 0,46.011834 Z"
     fill="#013b2d"
     id="path10739" />
  <path
     d="m 0,172.01183 87,21 88,38 87,22 87,-6 87,33 88,-38 87,-16 87,-22 87,-5 88,32 87,-32 v -67 h -87 l -88,-42.999996 -87,37.999996 -87,37 -87,11 -88,6 -87,-33 -87,11 -87,-5 -88,-17 -87,-10 z"
     fill="#014537"
     id="path10741" />
  <path
     d="m 0,301.01183 87,38 88,-48 87,21 87,60 87,21 88,-86 87,27 87,-38 87,27 88,-11 87,33 v -148 l -87,32 -88,-32 -87,5 -87,22 -87,16 -88,38 -87,-33 -87,6 -87,-22 -88,-38 -87,-21 z"
     fill="#024f42"
     id="path10743" />
  <path
     d="m 0,448.21961 h 87 88 87 87 87 88 87 87 87 88 87 V 332.8752 l -87,-26.80539 -88,8.93513 -87,-21.93169 -87,30.86682 -87,-21.93169 -88,69.85648 -87,-17.05798 -87,-48.73707 -87,-17.05798 -88,38.98966 -87,-30.86681 z"
     fill="#02594e"
     id="path10745"
     style="stroke-width:0.901268" />
</svg>
